<?xml version="1.0" encoding="UTF-8" standalone="no"?>
<!-- Created with Inkscape (http://www.inkscape.org/) -->

<svg
   width="63.107075mm"
   height="70.995064mm"
   viewBox="0 0 63.107075 70.995064"
   version="1.1"
   id="svg5"
   inkscape:version="1.1.1 (c3084ef, 2021-09-22)"
   sodipodi:docname="Logo.svg"
   xmlns:inkscape="http://www.inkscape.org/namespaces/inkscape"
   xmlns:sodipodi="http://sodipodi.sourceforge.net/DTD/sodipodi-0.dtd"
   xmlns="http://www.w3.org/2000/svg"
   xmlns:svg="http://www.w3.org/2000/svg">
  <sodipodi:namedview
     id="namedview7"
     pagecolor="#ffffff"
     bordercolor="#666666"
     borderopacity="1.0"
     inkscape:pageshadow="2"
     inkscape:pageopacity="0.0"
     inkscape:pagecheckerboard="0"
     inkscape:document-units="mm"
     showgrid="false"
     inkscape:zoom="1.3039015"
     inkscape:cx="141.49842"
     inkscape:cy="228.1614"
     inkscape:window-width="1390"
     inkscape:window-height="847"
     inkscape:window-x="50"
     inkscape:window-y="25"
     inkscape:window-maximized="1"
     inkscape:current-layer="layer1"
     showguides="false"
     inkscape:guide-bbox="true"
     inkscape:snap-bbox="true"
     inkscape:bbox-paths="true"
     inkscape:bbox-nodes="true"
     inkscape:snap-bbox-edge-midpoints="true"
     inkscape:snap-bbox-midpoints="true"
     inkscape:object-paths="true"
     inkscape:snap-smooth-nodes="true"
     inkscape:snap-midpoints="true"
     inkscape:snap-global="false">
    <sodipodi:guide
       position="8.8662304,42.372914"
       orientation="0,-1"
       id="guide10914" />
    <sodipodi:guide
       position="3.5736181,42.372914"
       orientation="1,0"
       id="guide10916" />
    <sodipodi:guide
       position="64.593151,42.372914"
       orientation="1,0"
       id="guide10918" />
    <sodipodi:guide
       position="1.6427752,49.112915"
       orientation="0,-1"
       id="guide15958" />
    <sodipodi:guide
       position="34.597547,42.827684"
       orientation="1,0"
       id="guide15960" />
    <sodipodi:guide
       position="34.598292,32.747124"
       orientation="0,-1"
       id="guide16801" />
    <sodipodi:guide
       position="18.234254,32.749154"
       orientation="1,0"
       id="guide16803" />
    <sodipodi:guide
       position="50.960838,27.087824"
       orientation="1,0"
       id="guide16805" />
    <sodipodi:guide
       position="13.503502,27.830114"
       orientation="1,0"
       id="guide16807" />
    <sodipodi:guide
       position="55.691591,22.237674"
       orientation="1,0"
       id="guide17101" />
    <sodipodi:guide
       position="18.234253,61.376505"
       orientation="0,-1"
       id="guide17375" />
    <sodipodi:guide
       position="34.597546,32.747134"
       orientation="0.70710678,-0.70710678"
       id="guide17828"
       inkscape:label=""
       inkscape:locked="false"
       inkscape:color="rgb(0,0,255)" />
    <sodipodi:guide
       position="67.734928,21.728704"
       orientation="1,0"
       id="guide8121" />
    <sodipodi:guide
       position="72.356271,21.250734"
       orientation="1,0"
       id="guide8123" />
    <sodipodi:guide
       position="72.356271,21.250734"
       orientation="0,-1"
       id="guide8125" />
  </sodipodi:namedview>
  <defs
     id="defs2">
    <filter
       id="mask-powermask-path-effect4177_inverse"
       inkscape:label="filtermask-powermask-path-effect4177"
       style="color-interpolation-filters:sRGB"
       height="100"
       width="100"
       x="-50"
       y="-50">
      <feColorMatrix
         id="mask-powermask-path-effect4177_primitive1"
         values="1"
         type="saturate"
         result="fbSourceGraphic" />
      <feColorMatrix
         id="mask-powermask-path-effect4177_primitive2"
         values="-1 0 0 0 1 0 -1 0 0 1 0 0 -1 0 1 0 0 0 1 0 "
         in="fbSourceGraphic" />
    </filter>
    <filter
       id="mask-powermask-path-effect4349_inverse"
       inkscape:label="filtermask-powermask-path-effect4349"
       style="color-interpolation-filters:sRGB"
       height="100"
       width="100"
       x="-50"
       y="-50">
      <feColorMatrix
         id="mask-powermask-path-effect4349_primitive1"
         values="1"
         type="saturate"
         result="fbSourceGraphic" />
      <feColorMatrix
         id="mask-powermask-path-effect4349_primitive2"
         values="-1 0 0 0 1 0 -1 0 0 1 0 0 -1 0 1 0 0 0 1 0 "
         in="fbSourceGraphic" />
    </filter>
    <clipPath
       clipPathUnits="userSpaceOnUse"
       id="clipPath4884">
      <path
         style="fill:none;fill-opacity:0.1417;stroke:#000000;stroke-width:0.264583;stroke-linecap:round;stroke-miterlimit:4;stroke-dasharray:none"
         id="path4886"
         width="23.884672"
         height="6.4043999"
         x="-6.555099"
         y="91.394669"
         ry="0"
         sodipodi:type="rect"
         d="m -6.555099,91.394669 h 23.884672 v 6.404399 H -6.555099 Z" />
    </clipPath>
  </defs>
  <g
     inkscape:label="Capa 1"
     inkscape:groupmode="layer"
     id="layer1"
     transform="translate(-14.256828,-16.76989)">
    <g
       aria-label="META"
       id="text429"
       style="font-size:25.4px;line-height:1.25;stroke-width:0.264583">
      <g
         id="g14173"
         transform="rotate(-20.107995,54.907824,43.432595)">
        <path
           d="m 33.204834,40.542733 -11.440878,-3.156951 8.987604,8.776572 -0.270891,0.55782 -12.503767,-1.536064 9.577149,6.994754 -1.029385,2.119717 -14.859653,-10.993956 0.493021,-1.015233 13.817016,1.89806 -10.181661,-9.384008 0.487604,-1.004077 17.953226,4.623649 z"
           style="font-size:25.4px;font-family:'Trebuchet MS';-inkscape-font-specification:'Trebuchet MS'"
           id="path10282" />
        <path
           d="m 32.241486,21.768195 2.087529,4.595873 5.465361,-2.482467 0.871941,1.919652 -5.465362,2.482467 2.708146,5.962212 7.497934,-3.405698 0.923231,2.032573 -9.756348,4.431511 -7.514077,-16.542882 9.88056,-4.487931 0.923232,2.032573 z"
           style="font-size:25.4px;font-family:'Trebuchet MS';-inkscape-font-specification:'Trebuchet MS'"
           id="path10284" />
        <path
           d="m 61.041304,19.817753 -5.11344,15.094405 -2.349323,-0.795866 5.113439,-15.094405 -5.473924,-1.854368 0.716279,-2.114391 13.543852,4.588168 -0.71628,2.114391 z"
           style="font-size:25.4px;font-family:'Trebuchet MS';-inkscape-font-specification:'Trebuchet MS'"
           id="path10286" />
        <path
           d="m 68.486267,47.895139 2.602412,-3.07949 -3.551709,-5.75093 -3.964444,0.874088 -1.459785,-2.363685 19.547519,-3.399055 0.345395,0.559265 -12.072637,15.502387 z m 9.232749,-11.037196 -8.285482,1.808057 2.83485,4.590192 z"
           style="font-size:25.4px;font-family:'Trebuchet MS';-inkscape-font-specification:'Trebuchet MS'"
           id="path10288" />
      </g>
    </g>
    <path
       style="fill:none;stroke:none;stroke-width:0.264583px;stroke-linecap:butt;stroke-linejoin:miter;stroke-opacity:1"
       d="m 31.795112,55.017831 c 4.730752,-28.62938 37.457335,-28.62938 42.188088,0"
       id="path15857"
       sodipodi:nodetypes="cc" />
    <g
       id="g10527"
       transform="translate(4.0347828)">
      <path
         style="fill:none;stroke:#000000;stroke-width:1.5875;stroke-linecap:butt;stroke-linejoin:miter;stroke-miterlimit:4;stroke-dasharray:none;stroke-opacity:1"
         d="m 38.67146,65.393283 -3.580755,3.388204"
         id="path17943" />
      <rect
         style="fill:#ff0000;fill-opacity:0.453441;stroke:#000000;stroke-width:0.529167;stroke-linecap:round;stroke-miterlimit:4;stroke-dasharray:none"
         id="rect3341"
         width="23.884672"
         height="6.4043999"
         x="-47.449928"
         y="70.264061"
         ry="3.2021999"
         transform="rotate(-45)" />
      <path
         id="path1690"
         style="fill:#ffffff;stroke-width:0.19835"
         d="m -14.731327,91.909266 c -0.248648,0 -0.450864,0.265249 -0.450864,0.591245 0,0.265591 0.134224,0.490706 0.31843,0.565064 v 3.062471 c -0.184226,0.07438 -0.31843,0.299563 -0.31843,0.565172 0,0.326004 0.202216,0.591254 0.450864,0.591254 1.050313,0 1.960552,-0.892153 2.872859,-1.908871 0.88498,0.986898 1.808347,1.908871 2.8729548,1.908871 1.0527279,0 1.9617298,-0.893274 2.8728607,-1.908871 0.8849771,0.986926 1.8083454,1.908871 2.872952,1.908871 1.0503147,0 1.9605498,-0.892153 2.87286068,-1.908871 0.8849772,0.986898 1.80825022,1.908871 2.87285802,1.908871 1.0527291,0 1.9618254,-0.893274 2.8729538,-1.908871 0.8849792,0.986926 1.8082493,1.908871 2.8728575,1.908871 1.0503149,0 1.9605535,-0.892153 2.8728605,-1.908871 0.88498,0.986898 1.808347,1.908871 2.872954,1.908871 1.052726,0 1.96173,-0.893274 2.872862,-1.908871 0.884977,0.986926 1.808342,1.908871 2.872953,1.908871 0.248649,0 0.450861,-0.26525 0.450861,-0.591254 0,-0.265623 -0.134269,-0.490729 -0.318522,-0.56506 v -3.062471 c 0.184226,-0.07438 0.318522,-0.299559 0.318522,-0.565176 0,-0.325996 -0.202212,-0.591245 -0.450861,-0.591245 -1.050315,0 -1.960645,0.892144 -2.872953,1.908864 -0.884982,-0.986897 -1.808254,-1.908864 -2.872862,-1.908864 -1.05273,0 -1.961731,0.893267 -2.872858,1.908864 -0.884978,-0.986928 -1.8083452,-1.908864 -2.8729565,-1.908864 -1.0503142,0 -1.9605461,0.892144 -2.8728575,1.908864 -0.8849784,-0.986897 -1.8083448,-1.908864 -2.8729538,-1.908864 -1.0527279,0 -1.96173073,0.893267 -2.87285802,1.908864 -0.88497848,-0.986928 -1.80825158,-1.908864 -2.87286068,-1.908864 -1.0503121,0 -1.9606447,0.892144 -2.872952,1.908864 -0.8849796,-0.986897 -1.8082529,-1.908864 -2.8728607,-1.908864 -1.0527288,0 -1.9617298,0.893267 -2.8728568,1.908864 -0.88498,-0.986928 -1.808347,-1.908864 -2.872957,-1.908864 z m 5.3186581,4.971879 c -0.9153861,-0.235437 -1.7533291,-1.180707 -2.5671811,-2.099386 -0.928135,-1.047691 -1.80481,-2.037285 -2.751477,-2.037285 -0.102586,0 -0.186088,-0.109449 -0.186088,-0.243963 0,-0.134526 0.0835,-0.243963 0.186088,-0.243963 1.084787,0 2.055567,1.095737 2.994338,2.155427 0.799853,0.902879 1.561525,1.76203 2.3626704,1.982435 0.2826767,0.09394 0.5259422,0.02991 0.7778922,6.31e-4 0.6857591,-0.187997 1.3370136,-0.841322 1.9943677,-1.570126 0.06484,0.07281 0.1298922,0.146196 0.1952524,0.219944 0.030093,0.03397 0.060222,0.06799 0.0904,0.10201 -0.7304208,0.811812 -1.4572879,1.534398 -2.2421405,1.735009 -0.2434833,0.02327 -0.4983723,0.105547 -0.8541209,-6.92e-4 z M 19.743459,92.256548 c 0.102587,0 0.185994,0.109448 0.185994,0.243963 0,0.134539 -0.08339,0.243963 -0.185994,0.243963 -0.591537,0 -1.153236,0.384646 -1.709378,0.918514 -0.01693,0.01018 -0.0319,0.02473 -0.0441,0.04274 -0.210245,0.204836 -0.419768,0.430029 -0.629964,0.663081 -0.06484,-0.07281 -0.129894,-0.146179 -0.195251,-0.219945 -0.0301,-0.03397 -0.06024,-0.068 -0.09041,-0.10201 0.862206,-0.958059 1.719377,-1.790291 2.669105,-1.790291 z m -6.134903,0.542129 c -0.685787,0.187967 -1.336986,0.841292 -1.994366,1.570131 -0.06485,-0.07282 -0.129896,-0.146199 -0.19525,-0.219946 -0.03009,-0.03397 -0.06022,-0.068 -0.0904,-0.10201 0.73042,-0.811817 1.457289,-1.534399 2.242138,-1.735007 0.292669,-0.109199 0.577734,-0.113838 0.854121,8.29e-4 0.915359,0.235469 1.753253,1.18073 2.567087,2.099386 0.928136,1.047691 1.80481,2.037284 2.751477,2.037284 0.102599,0 0.186092,0.109448 0.186092,0.243967 0,0.134511 -0.0835,0.243966 -0.186092,0.243966 -1.084788,0 -2.055471,-1.095741 -2.994243,-2.155432 -0.799855,-0.902868 -1.561524,-1.762021 -2.362671,-1.982425 -0.242169,-0.117936 -0.503174,-0.106421 -0.777894,-6.36e-4 z m -0.03805,4.082468 C 12.655116,96.645708 11.817171,95.700438 11.00332,94.781761 10.203408,93.878813 9.44167,93.019654 8.6404576,92.799327 8.4046169,92.704581 8.1393549,92.730189 7.8634167,92.799438 v -10e-7 c -0.4512774,0.123559 -0.8877593,0.447804 -1.3208562,0.863556 -0.016927,0.01018 -0.031894,0.02473 -0.044103,0.04274 -0.2102446,0.204839 -0.4198646,0.430031 -0.6300554,0.663083 -0.06484,-0.07281 -0.129895,-0.146181 -0.195254,-0.219945 -0.030092,-0.03398 -0.060247,-0.068 -0.0904,-0.10201 0.7311244,-0.812405 1.4586549,-1.534169 2.2420464,-1.734902 0.4107868,-0.114433 0.6349694,-0.05914 0.8542151,6.36e-4 0.9153841,0.235439 1.7533294,1.180708 2.5671794,2.099388 0.799869,0.902892 1.561513,1.762039 2.362674,1.982431 0.278673,0.07788 0.531506,0.0522 0.77789,6.37e-4 0.685761,-0.187996 1.336921,-0.841325 1.994273,-1.570133 0.06484,0.0728 0.129991,0.146198 0.195344,0.219946 0.03009,0.03397 0.06022,0.068 0.0904,0.102041 -0.730392,0.811781 -1.457322,1.534368 -2.242139,1.735007 -0.261569,0.07926 -0.53596,0.114447 -0.854123,-6.93e-4 z m -17.2373456,0 c -0.915388,-0.235437 -1.7533357,-1.180704 -2.5671868,-2.099384 -0.7998529,-0.902881 -1.5798474,-1.964861 -2.712259,-1.981409 -1.1324146,-0.01654 -1.7652906,0.839617 -2.4226686,1.568456 -0.06484,-0.07281 -0.129896,-0.146199 -0.195253,-0.219946 -0.0301,-0.03397 -0.06022,-0.068 -0.09041,-0.10201 0.730422,-0.811817 1.799277,-1.765212 2.668167,-1.765538 1.359898,0.108724 2.1813745,1.212048 2.9951809,2.130674 0.7999218,0.902963 1.5617282,1.762123 2.3629559,1.982431 0.2544806,0.0567 0.5110611,0.08692 0.7769465,-1.12e-4 0.4512939,-0.123557 0.887839,-0.447789 1.3209503,-0.863551 0.016928,-0.01019 0.031894,-0.02473 0.044105,-0.04274 0.2102409,-0.204838 0.4197684,-0.430031 0.6299621,-0.663082 0.0648404,0.0728 0.1298947,0.146181 0.19525143,0.219946 0.0300929,0.03398 0.0603421,0.068 0.0904959,0.102009 -0.73115093,0.812439 -1.45871573,1.5342 -2.24213923,1.734902 -0.2820695,0.07835 -0.566303,0.0922 -0.8541216,-6.36e-4 z m 5.7457187,0 C 1.163508,96.645674 0.32561198,95.700417 -0.48821979,94.781761 -1.2881307,93.878813 -2.0498689,93.019654 -2.8510808,92.799327 c -0.2590131,-0.09643 -0.5180277,-0.107764 -0.7770408,1.11e-4 -0.4512941,0.123558 -0.887746,0.44779 -1.3208565,0.863556 -0.016927,0.01018 -0.031991,0.02473 -0.044202,0.04274 -0.2102458,0.204841 -0.4197709,0.43003 -0.6299647,0.663082 -0.06484,-0.07281 -0.1298946,-0.146179 -0.1952537,-0.219945 -0.030092,-0.03398 -0.060247,-0.068 -0.0904,-0.10201 0.7311268,-0.812408 1.4586512,-1.534175 2.2420456,-1.7349 0.2822508,-0.0824 0.566228,-0.107469 0.8542145,6.35e-4 v -2e-6 c 0.9153578,0.235468 1.7532553,1.18073 2.5670882,2.099388 0.79988193,0.902911 1.5615873,1.762066 2.3627652,1.982431 0.2634106,0.08567 0.522529,0.08285 0.7777967,6.37e-4 0.6857916,-0.187968 1.3369844,-0.841294 1.9943688,-1.570133 0.06484,0.0728 0.1298934,0.146198 0.1952513,0.219946 0.030092,0.03398 0.060222,0.068 0.0904,0.102041 -0.7304218,0.811816 -1.4572904,1.534397 -2.2421416,1.735007 -0.2507483,0.0563 -0.5148466,0.09042 -0.8541202,-6.93e-4 z m 5.7458129,0 C 6.9092987,96.645708 6.0713518,95.700441 5.2575007,94.781761 4.4576344,93.878867 3.6959892,93.019717 2.8948282,92.799327 2.6116258,92.689449 2.3598149,92.723388 2.1170317,92.798691 c -0.6857916,0.187967 -1.33698447,0.841294 -1.99436612,1.570131 -0.06484051,-0.0728 -0.12989475,-0.146198 -0.19525131,-0.219945 -0.03009284,-0.03398 -0.06031839,-0.06799 -0.09049595,-0.102009 0.73039279,-0.811784 1.45732508,-1.534367 2.24213778,-1.735008 0.2279121,-0.05631 0.444579,-0.123836 0.8541238,8.31e-4 0.9153831,0.235439 1.7533302,1.180708 2.5671813,2.099385 0.7999105,0.902948 1.5616467,1.762104 2.3628615,1.982434 0.2623541,0.07331 0.5203091,0.05102 0.7769465,-1.11e-4 0.4513102,-0.123558 0.8878258,-0.447777 1.3209508,-0.863556 0.016926,-0.01018 0.031898,-0.02473 0.044105,-0.04274 0.210244,-0.204842 0.419864,-0.430033 0.630058,-0.663083 0.06484,0.0728 0.129894,0.146179 0.195252,0.219946 0.0301,0.03398 0.06023,0.068 0.0904,0.10201 -0.731125,0.812405 -1.4586568,1.534167 -2.2420474,1.734903 -0.2872645,0.05767 -0.5726883,0.07316 -0.8542142,-6.36e-4 z M -3.3721294,93.099442 v 2.994097 c -0.092516,-0.01048 -0.1849709,-0.03102 -0.2774329,-0.06189 v -2.870114 c 0.092309,-0.03058 0.1847945,-0.05167 0.2774329,-0.06209 z m 11.4915336,0 v 2.993985 c -0.092491,-0.01048 -0.1849063,-0.03095 -0.2773404,-0.06175 v -2.870112 c 0.092297,-0.03058 0.1847027,-0.05167 0.2773404,-0.06209 z m 11.4916258,0 v 2.994097 c -0.09252,-0.01048 -0.184975,-0.03102 -0.277437,-0.06189 v -2.870114 c 0.0923,-0.03058 0.184799,-0.05167 0.277437,-0.06209 z m -22.7182884,8.3e-4 c 0.092491,0.01048 0.1848984,0.03106 0.2773397,0.06189 v 2.870118 c -0.092273,0.0306 -0.1847316,0.05165 -0.2773397,0.0621 z m -11.4916266,1.13e-4 c 0.09249,0.01048 0.184998,0.03095 0.277434,0.06177 v 2.870115 c -0.09231,0.0306 -0.184795,0.05165 -0.277434,0.0621 z m 22.9831596,0 c 0.09249,0.01048 0.1849015,0.03095 0.2773357,0.06177 v 2.870115 c -0.092297,0.0306 -0.1846986,0.05165 -0.2773357,0.0621 z m -17.5294222,0.0026 v 2.987644 c -0.074369,-0.01019 -0.1486856,-0.02679 -0.2230213,-0.05012 v -2.887638 c 0.074233,-0.02308 0.1485578,-0.0398 0.2230213,-0.04988 z m 11.4916257,0 v 2.987644 c -0.074368,-0.01019 -0.1487834,-0.02679 -0.2231171,-0.05012 v -2.887638 c 0.07426,-0.02308 0.1486552,-0.0398 0.2231171,-0.04988 z m 11.4915329,0 v 2.987644 c -0.07436,-0.01019 -0.148686,-0.02679 -0.223026,-0.05012 v -2.887638 c 0.07427,-0.02308 0.148559,-0.0398 0.223026,-0.04988 z m -22.6639719,4.14e-4 c 0.074404,0.01019 0.1487506,0.02679 0.2231182,0.05009 v 2.88764 c -0.07426,0.02306 -0.1486552,0.03982 -0.2231182,0.04986 z m 11.4916257,0 c 0.07438,0.01019 0.1486867,0.0268 0.2230228,0.05009 v 2.88764 c -0.07426,0.02306 -0.1485573,0.03982 -0.2230228,0.04986 z m 11.4915322,0 c 0.07437,0.01019 0.148783,0.0268 0.223118,0.05009 v 2.88764 c -0.07427,0.02306 -0.148654,0.03982 -0.223118,0.04986 z m -23.7902436,0.157259 v 2.671482 c -0.097,-0.04881 -0.194071,-0.10677 -0.2913183,-0.172937 v -2.326311 c 0.09704,-0.06588 0.1941243,-0.123807 0.2913183,-0.172347 z m 11.4916272,0 V 95.93214 C 1.7615686,95.883574 1.664508,95.825566 1.5672621,95.7594 v -2.326364 c 0.097037,-0.06588 0.1941232,-0.123807 0.2913185,-0.17235 z m 11.4915324,0 v 2.671482 c -0.09701,-0.04861 -0.194072,-0.106606 -0.291321,-0.172771 v -2.326314 c 0.09704,-0.06588 0.194124,-0.123808 0.291321,-0.172351 z m -21.6880907,0.0013 c 0.097012,0.04863 0.1940713,0.106606 0.2913185,0.172772 v 2.326305 c -0.097037,0.06588 -0.1941245,0.12381 -0.2913185,0.172352 z m 11.4915327,0 c 0.097012,0.04863 0.19407,0.106606 0.2913173,0.172772 v 2.326305 c -0.097037,0.06588 -0.1941221,0.12381 -0.2913173,0.172352 z m 11.491531,0 c 0.09701,0.04863 0.19407,0.106606 0.291319,0.172772 v 2.326305 c -0.09704,0.06588 -0.194123,0.12381 -0.291319,0.172352 z m -18.5595239,0.01274 V 95.9187 c -0.09699,-0.0504 -0.194057,-0.11021 -0.2913175,-0.177857 V 93.45191 c 0.097061,-0.06738 0.1941221,-0.126937 0.2913175,-0.177215 z m 11.4916243,0 V 95.9187 C 7.4801976,95.868335 7.3831317,95.808524 7.28587,95.740875 v -2.288931 c 0.097061,-0.06738 0.1941227,-0.126937 0.2913164,-0.177216 z m 11.4915326,0 V 95.9187 C 18.971729,95.8683 18.874661,95.80849 18.7774,95.740843 V 93.45191 c 0.09707,-0.06738 0.194123,-0.126937 0.291319,-0.177215 z m -33.125399,0.001 c 0.09699,0.05037 0.194154,0.110099 0.291413,0.177749 v 2.288929 c -0.09706,0.06738 -0.194219,0.126933 -0.291413,0.177213 z m 11.4916262,0 c 0.096989,0.05037 0.1940581,0.110099 0.2913199,0.177749 v 2.288929 c -0.097061,0.06738 -0.1941245,0.126933 -0.2913199,0.177213 z m 11.4915319,0 c 0.096989,0.05037 0.1940562,0.110099 0.2913179,0.177749 v 2.288929 c -0.097061,0.06739 -0.1941243,0.126947 -0.2913179,0.177227 z m -19.1157131,0.355977 v 1.928883 c -0.09684,-0.07912 -0.193914,-0.16495 -0.29132,-0.2563 v -1.416062 c 0.09716,-0.09127 0.19424,-0.177197 0.29132,-0.256513 z m 11.4916261,0 v 1.928883 C 1.2055477,95.481462 1.108477,95.395624 1.0110714,95.304274 V 93.88821 c 0.09717,-0.09127 0.1942418,-0.177196 0.2913197,-0.256511 z m 11.4915319,0 v 1.928883 c -0.09684,-0.07912 -0.193913,-0.16495 -0.29132,-0.2563 v -1.416062 c 0.09716,-0.09127 0.19424,-0.177197 0.29132,-0.256513 z m -20.5758054,0.0019 c 0.096843,0.07912 0.1940072,0.164949 0.2914127,0.256296 v 1.416071 c -0.097145,0.09127 -0.1943349,0.177198 -0.2914127,0.256515 z m 11.4916257,0 c 0.096843,0.07912 0.1939153,0.164949 0.2913197,0.256296 v 1.416071 c -0.097146,0.09127 -0.1942406,0.177198 -0.2913197,0.256515 z m 11.4915317,0 c 0.09684,0.07912 0.193914,0.164949 0.29132,0.256296 v 1.416071 c -0.09716,0.09127 -0.194242,0.177198 -0.29132,0.256515 z m -19.6718071,0.02066 v 1.884092 c -0.096831,-0.0803 -0.1939982,-0.167245 -0.2914159,-0.259544 v -1.364787 c 0.09717,-0.09223 0.1943501,-0.179219 0.2914159,-0.259761 z m 11.4915296,0 v 1.884092 C 6.9241655,95.458037 6.8270945,95.371089 6.7296788,95.27879 v -1.364787 c 0.09717,-0.09223 0.194253,-0.179218 0.2913187,-0.25976 z m 11.4915335,0 v 1.884092 c -0.09683,-0.0803 -0.193904,-0.167245 -0.291322,-0.259544 v -1.364787 c 0.09717,-0.09223 0.194256,-0.179219 0.291322,-0.259761 z m -32.013022,0.0016 c 0.09683,0.08031 0.193904,0.167244 0.291319,0.259545 v 1.364788 c -0.09717,0.09222 -0.194253,0.179218 -0.291319,0.259759 z m 11.4916256,0 c 0.096832,0.08031 0.1939033,0.167244 0.2913197,0.259545 v 1.364788 c -0.09717,0.09218 -0.1942526,0.179173 -0.2913197,0.259714 z m 11.4915324,0 c 0.096832,0.08031 0.1939035,0.167244 0.2913189,0.259545 v 1.364788 c -0.09717,0.09222 -0.194254,0.179218 -0.2913189,0.259759 z m -20.228092,0.493069 v 0.895471 c -0.138775,-0.141736 -0.278312,-0.291994 -0.418935,-0.44725 0.140075,-0.154775 0.279607,-0.30558 0.418935,-0.448221 z m 11.49162534,0 v 0.895471 c -0.13877723,-0.14177 -0.27840581,-0.292029 -0.41902948,-0.447284 0.14007599,-0.154775 0.27970217,-0.30558 0.41902948,-0.44822 z m 11.49153366,0 v 0.895471 c -0.138777,-0.141736 -0.278312,-0.291994 -0.418937,-0.44725 0.140076,-0.154775 0.279608,-0.30558 0.418937,-0.448221 z m -19.463428,0.001 c 0.1387798,0.141735 0.2784071,0.291996 0.4190333,0.447249 -0.1400615,0.154774 -0.2797059,0.305581 -0.4190333,0.448222 z m 11.4916256,0 c 0.1387932,0.141735 0.2783142,0.291996 0.4189366,0.447249 -0.1400602,0.154774 -0.2796066,0.305581 -0.4189366,0.448222 z m 11.4915324,0 c 0.138778,0.141735 0.278407,0.291996 0.419034,0.447249 -0.140063,0.154774 -0.279707,0.305581 -0.419034,0.448222 z m -20.7841861,0.02694 v 0.839752 c -0.1298307,-0.133467 -0.2603541,-0.274299 -0.3918266,-0.419423 0.1309684,-0.144712 0.2615087,-0.285961 0.3918266,-0.420308 z m 11.4915323,0 v 0.839752 C 6.3349819,94.883147 6.2044572,94.742316 6.0729811,94.597192 6.203952,94.45248 6.3344909,94.311231 6.4648102,94.176883 Z m 11.4915288,0 v 0.839752 c -0.129829,-0.133503 -0.260352,-0.274335 -0.391824,-0.41946 0.130968,-0.144711 0.261507,-0.285961 0.391824,-0.420308 z m -30.900638,8.29e-4 c 0.129829,0.133488 0.260351,0.274427 0.391826,0.419552 -0.13097,0.144711 -0.261509,0.285853 -0.391826,0.420201 z m 11.4916244,0 c 0.1298307,0.133488 0.2603528,0.274427 0.3918265,0.419552 -0.1309683,0.144711 -0.2615087,0.285853 -0.3918265,0.420201 z m 11.4915336,0 c 0.129827,0.133488 0.260352,0.274427 0.391825,0.419552 -0.130969,0.144711 -0.261509,0.285853 -0.391825,0.420201 z m -22.386731,0.6475 c 0.06485,0.0728 0.129896,0.146179 0.195252,0.219945 0.0301,0.03398 0.06025,0.068 0.09041,0.10201 -0.862205,0.958058 -1.719375,1.790295 -2.669106,1.790295 -0.102611,0 -0.186091,-0.109448 -0.186091,-0.243967 0,-0.13454 0.0835,-0.24396 0.186091,-0.24396 0.591537,0 1.15314,-0.384646 1.709281,-0.918516 0.01692,-0.01019 0.0319,-0.02474 0.0441,-0.04274 0.210244,-0.20484 0.419866,-0.430033 0.630056,-0.663084 z"
         sodipodi:nodetypes="ssccsscscscscscscssccsscscscscscscssssssscccccccscscccscscscccccsccccccscccsccscccccsccsssccscccscccccsccccscscccsccccscscccsccccscccccccccccccsccccsccccccccccccccccccccccccccccccccccccccccccccccccccccccccccccccccccccccccccccccccccccccccccccccccccccccccccccccccccccccccccccccccccccccccccccccccccccccccccccccccccccccccccccccccccccccccccccccccccccccccccccccccccccccccccsccsscsscsscsccccsscs"
         clip-path="url(#clipPath4884)"
         transform="rotate(-45,-5.0594863,59.929728)" />
      <rect
         style="fill:none;fill-opacity:0.1417;stroke:#000000;stroke-width:0.529167;stroke-linecap:round;stroke-miterlimit:4;stroke-dasharray:none"
         id="rect5008"
         width="23.884672"
         height="6.4043999"
         x="-47.449928"
         y="70.264061"
         ry="3.2021999"
         transform="rotate(-45)" />
    </g>
    <g
       id="g7013"
       transform="translate(5.9726636,2.3342655)">
      <path
         style="fill:#ffffff;stroke:#000000;stroke-width:0.79375;stroke-linecap:butt;stroke-linejoin:miter;stroke-miterlimit:4;stroke-dasharray:none;stroke-dashoffset:0;stroke-opacity:1"
         d="m 46.017679,60.633934 c 0.436685,0.802722 -0.02493,2.223492 -0.852523,2.606242 -1.858768,0.85965 -5.014477,-0.398673 -5.681027,-2.340661 -0.385141,-1.122097 0.585599,-2.398985 1.756894,-2.563352 1.012396,-0.14207 1.302397,1.118229 2.192418,1.623062 0.774887,0.439528 2.157774,-0.109224 2.584238,0.674709 z"
         id="path6261"
         sodipodi:nodetypes="ssssss" />
      <path
         style="fill:#000000;fill-opacity:0.1417;stroke:none;stroke-width:1.50006;stroke-linecap:round;stroke-miterlimit:4;stroke-dasharray:none;stroke-dashoffset:0"
         id="path6861"
         sodipodi:type="arc"
         sodipodi:cx="40.788342"
         sodipodi:cy="60.274868"
         sodipodi:rx="0.44455957"
         sodipodi:ry="0.46308288"
         sodipodi:start="6.2718756"
         sodipodi:end="6.2685245"
         sodipodi:open="true"
         sodipodi:arc-type="arc"
         d="m 41.232873,60.269631 a 0.44455957,0.46308288 0 0 1 -0.439131,0.468286 0.44455957,0.46308288 0 0 1 -0.449923,-0.457036 0.44455957,0.46308288 0 0 1 0.438378,-0.469052 0.44455957,0.46308288 0 0 1 0.450656,0.45625" />
      <path
         style="fill:#000000;fill-opacity:0.1417;stroke:none;stroke-width:1.50006;stroke-linecap:round;stroke-miterlimit:4;stroke-dasharray:none;stroke-dashoffset:0"
         id="path6987"
         sodipodi:type="arc"
         sodipodi:cx="44.493004"
         sodipodi:cy="61.460358"
         sodipodi:rx="0.44455957"
         sodipodi:ry="0.46308288"
         sodipodi:start="6.2718756"
         sodipodi:end="6.2685245"
         sodipodi:open="true"
         sodipodi:arc-type="arc"
         d="m 44.937535,61.45512 a 0.44455957,0.46308288 0 0 1 -0.439131,0.468286 0.44455957,0.46308288 0 0 1 -0.449922,-0.457035 0.44455957,0.46308288 0 0 1 0.438377,-0.469052 0.44455957,0.46308288 0 0 1 0.450657,0.45625" />
      <path
         style="fill:#000000;fill-opacity:0.1417;stroke:none;stroke-width:1.15389;stroke-linecap:round;stroke-miterlimit:4;stroke-dasharray:none;stroke-dashoffset:0"
         id="path6989"
         sodipodi:type="arc"
         sodipodi:cx="42.748104"
         sodipodi:cy="62.080891"
         sodipodi:rx="0.57792747"
         sodipodi:ry="0.60200775"
         sodipodi:start="6.2718756"
         sodipodi:end="6.2685245"
         sodipodi:open="true"
         sodipodi:arc-type="arc"
         d="m 43.325995,62.074082 a 0.57792747,0.60200775 0 0 1 -0.570871,0.608772 0.57792747,0.60200775 0 0 1 -0.584899,-0.594146 0.57792747,0.60200775 0 0 1 0.569891,-0.609768 0.57792747,0.60200775 0 0 1 0.585853,0.593125" />
    </g>
    <g
       id="g7183"
       transform="rotate(28.195252,52.633821,62.753787)">
      <g
         id="g7023"
         transform="rotate(124.30977,48.918519,55.567408)">
        <path
           style="fill:#ffffff;stroke:#000000;stroke-width:0.79375;stroke-linecap:butt;stroke-linejoin:miter;stroke-miterlimit:4;stroke-dasharray:none;stroke-dashoffset:0;stroke-opacity:1"
           d="m 46.017679,60.633934 c 0.436685,0.802722 -0.02493,2.223492 -0.852523,2.606242 -1.858768,0.85965 -5.014477,-0.398673 -5.681027,-2.340661 -0.385141,-1.122097 0.585599,-2.398985 1.756894,-2.563352 1.012396,-0.14207 1.302397,1.118229 2.192418,1.623062 0.774887,0.439528 2.157774,-0.109224 2.584238,0.674709 z"
           id="path7015"
           sodipodi:nodetypes="ssssss" />
        <path
           style="fill:#000000;fill-opacity:0.1417;stroke:none;stroke-width:1.50006;stroke-linecap:round;stroke-miterlimit:4;stroke-dasharray:none;stroke-dashoffset:0"
           id="path7017"
           sodipodi:type="arc"
           sodipodi:cx="40.788342"
           sodipodi:cy="60.274868"
           sodipodi:rx="0.44455957"
           sodipodi:ry="0.46308288"
           sodipodi:start="6.2718756"
           sodipodi:end="6.2685245"
           sodipodi:open="true"
           sodipodi:arc-type="arc"
           d="m 41.232873,60.269631 a 0.44455957,0.46308288 0 0 1 -0.439131,0.468286 0.44455957,0.46308288 0 0 1 -0.449923,-0.457036 0.44455957,0.46308288 0 0 1 0.438378,-0.469052 0.44455957,0.46308288 0 0 1 0.450656,0.45625" />
        <path
           style="fill:#000000;fill-opacity:0.1417;stroke:none;stroke-width:1.50006;stroke-linecap:round;stroke-miterlimit:4;stroke-dasharray:none;stroke-dashoffset:0"
           id="path7019"
           sodipodi:type="arc"
           sodipodi:cx="44.493004"
           sodipodi:cy="61.460358"
           sodipodi:rx="0.44455957"
           sodipodi:ry="0.46308288"
           sodipodi:start="6.2718756"
           sodipodi:end="6.2685245"
           sodipodi:open="true"
           sodipodi:arc-type="arc"
           d="m 44.937535,61.45512 a 0.44455957,0.46308288 0 0 1 -0.439131,0.468286 0.44455957,0.46308288 0 0 1 -0.449922,-0.457035 0.44455957,0.46308288 0 0 1 0.438377,-0.469052 0.44455957,0.46308288 0 0 1 0.450657,0.45625" />
        <path
           style="fill:#000000;fill-opacity:0.1417;stroke:none;stroke-width:1.15389;stroke-linecap:round;stroke-miterlimit:4;stroke-dasharray:none;stroke-dashoffset:0"
           id="path7021"
           sodipodi:type="arc"
           sodipodi:cx="42.748104"
           sodipodi:cy="62.080891"
           sodipodi:rx="0.57792747"
           sodipodi:ry="0.60200775"
           sodipodi:start="6.2718756"
           sodipodi:end="6.2685245"
           sodipodi:open="true"
           sodipodi:arc-type="arc"
           d="m 43.325995,62.074082 a 0.57792747,0.60200775 0 0 1 -0.570871,0.608772 0.57792747,0.60200775 0 0 1 -0.584899,-0.594146 0.57792747,0.60200775 0 0 1 0.569891,-0.609768 0.57792747,0.60200775 0 0 1 0.585853,0.593125" />
      </g>
      <path
         style="fill:none;stroke:#000000;stroke-width:0.529167;stroke-linecap:round;stroke-linejoin:miter;stroke-miterlimit:4;stroke-dasharray:none;stroke-opacity:1"
         d="m 44.923598,49.504044 c -0.66064,0.293618 -1.442849,0.399132 -1.981922,0.880856 -0.877678,0.784307 0.263329,0.79439 -0.08808,1.409366 -0.06515,0.114009 -0.234228,0.118801 -0.352343,0.176171 -0.395727,0.192211 -0.806545,0.355401 -1.189154,0.572555 -0.601991,0.341673 -0.810273,0.894281 -1.057026,1.497455 -0.04233,0.103481 -0.06637,0.217876 -0.132128,0.3083 -0.09354,0.128619 -0.613799,0.409199 -0.660641,0.440425 -0.200959,0.133975 -0.259233,0.213517 -0.396385,0.396386"
         id="path7058" />
    </g>
    <g
       id="g7734"
       transform="matrix(0.08372501,0,0,-0.08416957,19.063901,100.9221)"
       style="stroke-width:4.20239">
      <g
         id="g7281"
         transform="translate(473.8027,510.6338)"
         style="fill:#ffffff;stroke-width:4.20239">
        <path
           d="M 0,0 29.457,-17.008 V -51.023 L 0,-68.031 -29.457,-51.023 v 34.015 z"
           style="fill:#ffffff;fill-opacity:1;fill-rule:nonzero;stroke:none;stroke-width:4.20239"
           id="path7283" />
      </g>
      <g
         id="g7285"
         transform="translate(473.8027,510.6338)"
         style="fill:#ffffff;stroke-width:4.20239">
        <path
           d="M 0,0 29.457,-17.008 V -51.023 L 0,-68.031 -29.457,-51.023 v 34.015 z"
           style="fill:#ffffff;stroke:#000000;stroke-width:3.36191;stroke-linecap:round;stroke-linejoin:round;stroke-miterlimit:4;stroke-dasharray:none;stroke-opacity:1"
           id="path7287" />
      </g>
      <g
         id="g7289"
         transform="translate(473.8027,450.603)"
         style="fill:#ffffff;stroke-width:4.20239">
        <path
           d="M 0,0 -21.146,35.824 H 21.145 Z"
           style="fill:#ffffff;fill-opacity:1;fill-rule:nonzero;stroke:none;stroke-width:4.20239"
           id="path7291" />
      </g>
      <g
         id="g7293"
         transform="translate(473.8027,450.603)"
         style="fill:#ffffff;stroke-width:4.20239">
        <path
           d="M 0,0 -21.146,35.824 H 21.145 Z"
           style="fill:#ffffff;stroke:#000000;stroke-width:3.36191;stroke-linecap:round;stroke-linejoin:round;stroke-miterlimit:4;stroke-dasharray:none;stroke-opacity:1"
           id="path7295" />
      </g>
      <g
         id="g7297"
         transform="translate(473.8027,510.6338)"
         style="fill:#ffffff;stroke-width:4.20239">
        <path
           d="M 0,0 -21.146,-24.207 H 21.145 Z"
           style="fill:#ffffff;fill-opacity:1;fill-rule:nonzero;stroke:none;stroke-width:4.20239"
           id="path7299" />
      </g>
      <g
         id="g7301"
         transform="translate(473.8027,510.6338)"
         style="fill:#ffffff;stroke-width:4.20239">
        <path
           d="M 0,0 -21.146,-24.207 H 21.145 Z"
           style="fill:#ffffff;stroke:#000000;stroke-width:3.36191;stroke-linecap:round;stroke-linejoin:round;stroke-miterlimit:4;stroke-dasharray:none;stroke-opacity:1"
           id="path7303" />
      </g>
      <g
         id="g7305"
         transform="translate(444.3457,493.626)"
         style="fill:#ffffff;stroke-width:4.20239">
        <path
           d="M 0,0 29.457,17.008 8.312,-7.199 Z"
           style="fill:#ffffff;fill-opacity:1;fill-rule:nonzero;stroke:none;stroke-width:4.20239"
           id="path7307" />
      </g>
      <g
         id="g7309"
         transform="translate(444.3457,493.626)"
         style="fill:#ffffff;stroke-width:4.20239">
        <path
           d="M 0,0 29.457,17.008 8.312,-7.199 Z"
           style="fill:#ffffff;stroke:#000000;stroke-width:3.36191;stroke-linecap:round;stroke-linejoin:round;stroke-miterlimit:4;stroke-dasharray:none;stroke-opacity:1"
           id="path7311" />
      </g>
      <g
         id="g7313"
         transform="translate(444.3457,459.6108)"
         style="fill:#ffffff;stroke-width:4.20239">
        <path
           d="m 0,0 29.457,-9.008 v -8 z"
           style="fill:#ffffff;fill-opacity:1;fill-rule:nonzero;stroke:none;stroke-width:4.20239"
           id="path7315" />
      </g>
      <g
         id="g7317"
         transform="translate(444.3457,459.6108)"
         style="fill:#ffffff;stroke-width:4.20239">
        <path
           d="m 0,0 29.457,-9.008 v -8 z"
           style="fill:#ffffff;stroke:#000000;stroke-width:3.36191;stroke-linecap:round;stroke-linejoin:round;stroke-miterlimit:4;stroke-dasharray:none;stroke-opacity:1"
           id="path7319" />
      </g>
      <g
         id="g7321"
         transform="translate(444.3457,493.626)"
         style="fill:#ffffff;stroke-width:4.20239">
        <path
           d="M 0,0 8.312,-7.199 0,-34.015 Z"
           style="fill:#ffffff;fill-opacity:1;fill-rule:nonzero;stroke:none;stroke-width:4.20239"
           id="path7323" />
      </g>
      <g
         id="g7325"
         transform="translate(444.3457,493.626)"
         style="fill:#ffffff;stroke-width:4.20239">
        <path
           d="M 0,0 8.312,-7.199 0,-34.015 Z"
           style="fill:#ffffff;stroke:#000000;stroke-width:3.36191;stroke-linecap:round;stroke-linejoin:round;stroke-miterlimit:4;stroke-dasharray:none;stroke-opacity:1"
           id="path7327" />
      </g>
      <g
         id="g7329"
         transform="translate(494.9473,486.4268)"
         style="fill:#ffffff;stroke-width:4.20239">
        <path
           d="M 0,0 8.313,7.199 V -26.816 Z"
           style="fill:#ffffff;fill-opacity:1;fill-rule:nonzero;stroke:none;stroke-width:4.20239"
           id="path7331" />
      </g>
      <g
         id="g7333"
         transform="translate(494.9473,486.4268)"
         style="fill:#ffffff;stroke-width:4.20239">
        <path
           d="M 0,0 8.313,7.199 V -26.816 Z"
           style="fill:#ffffff;stroke:#000000;stroke-width:3.36191;stroke-linecap:round;stroke-linejoin:round;stroke-miterlimit:4;stroke-dasharray:none;stroke-opacity:1"
           id="path7335" />
      </g>
      <g
         id="g7337"
         transform="translate(503.2598,459.6108)"
         style="fill:#ffffff;stroke-width:4.20239">
        <path
           d="m 0,0 -29.457,-9.008 v -8 z"
           style="fill:#ffffff;fill-opacity:1;fill-rule:nonzero;stroke:none;stroke-width:4.20239"
           id="path7339" />
      </g>
      <g
         id="g7341"
         transform="translate(503.2598,459.6108)"
         style="fill:#ffffff;stroke-width:4.20239">
        <path
           d="m 0,0 -29.457,-9.008 v -8 z"
           style="fill:#ffffff;stroke:#000000;stroke-width:3.36191;stroke-linecap:round;stroke-linejoin:round;stroke-miterlimit:4;stroke-dasharray:none;stroke-opacity:1"
           id="path7343" />
      </g>
      <g
         id="g7345"
         transform="translate(494.9473,486.4268)"
         style="fill:#ffffff;stroke-width:4.20239">
        <path
           d="M 0,0 -21.145,24.207 8.313,7.199 Z"
           style="fill:#ffffff;fill-opacity:1;fill-rule:nonzero;stroke:none;stroke-width:4.20239"
           id="path7347" />
      </g>
      <g
         id="g7349"
         transform="translate(494.9473,486.4268)"
         style="fill:#ffffff;stroke-width:4.20239">
        <path
           d="M 0,0 -21.145,24.207 8.313,7.199 Z"
           style="fill:#ffffff;stroke:#000000;stroke-width:3.36191;stroke-linecap:round;stroke-linejoin:round;stroke-miterlimit:4;stroke-dasharray:none;stroke-opacity:1"
           id="path7351" />
      </g>
    </g>
    <g
       id="g9095"
       transform="matrix(0.55515332,0.23819466,-0.23819466,0.55515332,13.3475,-2.3666499)"
       style="stroke-width:1.65537">
      <path
         style="fill:none;stroke:#000000;stroke-width:0.875965;stroke-linecap:round;stroke-linejoin:round;stroke-miterlimit:4;stroke-dasharray:none;stroke-opacity:1"
         d="m 86.613098,62.84515 v 8.010313"
         id="path8160" />
      <path
         style="fill:none;stroke:#000000;stroke-width:0.875965;stroke-linecap:round;stroke-linejoin:round;stroke-miterlimit:4;stroke-dasharray:none;stroke-opacity:1"
         d="M 90.618255,66.850306 H 82.607942"
         id="path8242" />
      <path
         style="fill:none;stroke:#000000;stroke-width:0.875965;stroke-linecap:round;stroke-linejoin:round;stroke-miterlimit:4;stroke-dasharray:none;stroke-opacity:1"
         d="m 89.445172,64.018233 -5.664147,5.664146"
         id="path8244" />
      <path
         style="fill:none;stroke:#000000;stroke-width:0.875965;stroke-linecap:round;stroke-linejoin:round;stroke-miterlimit:4;stroke-dasharray:none;stroke-opacity:1"
         d="m 83.781025,64.018233 5.664146,5.664147"
         id="path8246" />
      <path
         style="fill:#ffffff;fill-opacity:1;stroke:#1a1a1a;stroke-width:0.733937;stroke-linecap:round;stroke-linejoin:round;stroke-miterlimit:4;stroke-dasharray:none;stroke-dashoffset:0"
         id="path7962"
         sodipodi:type="arc"
         sodipodi:cx="86.840408"
         sodipodi:cy="67.22818"
         sodipodi:rx="2.5994487"
         sodipodi:ry="2.5780239"
         sodipodi:start="6.2718756"
         sodipodi:end="6.2685245"
         sodipodi:open="true"
         sodipodi:arc-type="arc"
         d="m 89.439691,67.199024 a 2.5994487,2.5780239 0 0 1 -2.567707,2.60699 2.5994487,2.5780239 0 0 1 -2.630805,-2.544359 2.5994487,2.5780239 0 0 1 2.563298,-2.611253 2.5994487,2.5780239 0 0 1 2.635101,2.539983"
         transform="matrix(0.99999061,-0.00433426,-0.00437028,0.99999045,0,0)" />
      <path
         style="fill:#000000;fill-opacity:1;stroke:none;stroke-width:2.81152;stroke-linecap:round;stroke-linejoin:round;stroke-miterlimit:4;stroke-dasharray:none;stroke-dashoffset:0"
         id="path8710"
         sodipodi:type="arc"
         sodipodi:cx="86.060051"
         sodipodi:cy="68.062576"
         sodipodi:rx="0.28846145"
         sodipodi:ry="0.28888318"
         sodipodi:start="6.2718756"
         sodipodi:end="6.2685245"
         sodipodi:open="true"
         sodipodi:arc-type="arc"
         d="m 86.348494,68.059309 a 0.28846145,0.28888318 0 0 1 -0.284939,0.292129 0.28846145,0.28888318 0 0 1 -0.291941,-0.285111 0.28846145,0.28888318 0 0 1 0.28445,-0.292606 0.28846145,0.28888318 0 0 1 0.292417,0.28462" />
      <path
         style="fill:#000000;fill-opacity:1;stroke:none;stroke-width:1.42702;stroke-linecap:round;stroke-linejoin:round;stroke-miterlimit:4;stroke-dasharray:none;stroke-dashoffset:0"
         id="path8830"
         sodipodi:type="arc"
         sodipodi:cx="87.336075"
         sodipodi:cy="67.1408"
         sodipodi:rx="0.57692027"
         sodipodi:ry="0.56068999"
         sodipodi:start="6.2718756"
         sodipodi:end="6.2685245"
         sodipodi:open="true"
         sodipodi:arc-type="arc"
         d="m 87.912958,67.134459 a 0.57692027,0.56068999 0 0 1 -0.569875,0.56699 0.57692027,0.56068999 0 0 1 -0.58388,-0.553368 0.57692027,0.56068999 0 0 1 0.568897,-0.567917 0.57692027,0.56068999 0 0 1 0.584833,0.552417" />
      <path
         style="fill:#000000;fill-opacity:1;stroke:none;stroke-width:2.81152;stroke-linecap:round;stroke-linejoin:round;stroke-miterlimit:4;stroke-dasharray:none;stroke-dashoffset:0"
         id="path8914"
         sodipodi:type="arc"
         sodipodi:cx="85.755562"
         sodipodi:cy="66.636292"
         sodipodi:rx="0.28846145"
         sodipodi:ry="0.28888318"
         sodipodi:start="6.2718756"
         sodipodi:end="6.2685245"
         sodipodi:open="true"
         sodipodi:arc-type="arc"
         d="m 86.044005,66.633024 a 0.28846145,0.28888318 0 0 1 -0.284939,0.292129 0.28846145,0.28888318 0 0 1 -0.291941,-0.28511 0.28846145,0.28888318 0 0 1 0.28445,-0.292607 0.28846145,0.28888318 0 0 1 0.292417,0.28462" />
    </g>
  </g>
  <g
     inkscape:groupmode="layer"
     id="layer2"
     inkscape:label="Capa 2"
     style="display:inline"
     transform="translate(-14.256828,-16.76989)">
    <g
       id="g12195"
       transform="translate(2.4033437,-6.5814303)">
      <path
         style="fill:none;stroke:#000000;stroke-width:3.175;stroke-linecap:round;stroke-linejoin:round;stroke-miterlimit:4;stroke-dasharray:none;stroke-opacity:1"
         d="m 62.097096,52.457927 c 0,0 -4.066185,-5.636955 -11.610812,-5.636956 -8.622078,-10e-7 -14.776263,7.111174 -14.776263,14.7783 0,8.980631 7.372992,14.774226 14.776263,14.774226 10.296346,10e-7 14.775321,-8.990576 14.775321,-14.774226 H 50.486559 v 0"
         id="path10957"
         sodipodi:nodetypes="csscccc" />
      <circle
         id="path6436"
         style="fill:#008080;stroke:#000000;stroke-width:0.264583"
         cx="50.773754"
         cy="47.650764"
         r="0.093930751" />
    </g>
    <path
       style="fill:#ffff00;fill-opacity:0.1417;stroke:none;stroke-width:3.175;stroke-linecap:round;stroke-linejoin:round;stroke-miterlimit:4;stroke-dasharray:none"
       id="path8911"
       sodipodi:type="arc"
       sodipodi:cx="52.889622"
       sodipodi:cy="55.015812"
       sodipodi:rx="14.539367"
       sodipodi:ry="14.539367"
       sodipodi:start="6.2718809"
       sodipodi:end="6.2685332"
       sodipodi:arc-type="arc"
       d="M 67.428059,54.851456 A 14.539367,14.539367 0 0 1 53.066145,69.554107 14.539367,14.539367 0 0 1 38.351479,55.204502 14.539367,14.539367 0 0 1 52.688764,40.477833 14.539367,14.539367 0 0 1 67.427428,54.802787"
       sodipodi:open="true" />
  </g>
</svg>
